<svg xmlns="http://www.w3.org/2000/svg" xmlns:xlink="http://www.w3.org/1999/xlink" version="1.1" width="742pt" height="116pt" viewBox="0 0 742 116">
<defs>
<clipPath id="clip_0">
<path transform="matrix(1,0,0,-1,0,116)" d="M0 0H742V116H0Z"/>
</clipPath>
<clipPath id="clip_1">
<path transform="matrix(1,0,0,-1,-29,458)" d="M0 0H800V800H0Z"/>
</clipPath>
<clipPath id="clip_2">
<path transform="matrix(1,0,0,-1,-29,458)" d="M0 800H800V0H0Z"/>
</clipPath>
</defs>
<g clip-path="url(#clip_0)">
<g clip-path="url(#clip_1)">
<g id="layer_1" data-name="Layer">
<g clip-path="url(#clip_2)">
<path transform="matrix(1,0,0,-1,138.2485,61.04001)" d="M0 0C0 10.43-7.549 17.523-16.311 17.523-25.072 17.523-32.622 10.404-32.622 0-32.622-10.404-25.072-17.523-16.311-17.523-7.549-17.523 0-10.301 0 0M12.699 0C12.699-16.021-.289-29.01-16.311-29.01-32.333-29.01-45.321-16.021-45.321 0-45.321 16.021-32.333 29.01-16.311 29.01-.289 29.01 12.699 16.021 12.699 0" fill="#e84335"/>
<path transform="matrix(1,0,0,-1,200.832,61.04001)" d="M0 0C0 10.43-7.549 17.523-16.311 17.523-25.073 17.523-32.622 10.404-32.622 0-32.622-10.404-25.073-17.523-16.311-17.523-7.549-17.523 0-10.301 0 0M12.699 0C12.699-16.021-.289-29.01-16.311-29.01-32.333-29.01-45.321-16.021-45.321 0-45.321 16.021-32.333 29.01-16.311 29.01-.289 29.01 12.699 16.021 12.699 0" fill="#f5bc0f"/>
<path transform="matrix(1,0,0,-1,262.3462,61.1445)" d="M0 0C0 10.183-6.793 17.627-15.438 17.627-24.082 17.627-31.54 10.183-31.54 0-31.54-10.183-24.199-17.419-15.424-17.419-6.649-17.419 0-10.078 0 0M11.161 27.276V-24.643C11.161-45.999-1.434-54.722-16.324-54.722-27.542-54.793-37.681-48.052-41.957-37.681L-30.9-33.078C-28.932-37.785-24.108-43.339-16.337-43.339-6.806-43.339-.9-37.459-.9-26.39V-22.23H-1.343C-5.213-26.537-10.784-28.922-16.572-28.749-31.031-28.749-44.278-16.154-44.278 .052-44.278 16.259-31.07 29.023-16.572 29.023-10.793 29.148-5.242 26.771-1.343 22.504H-.9V27.263H11.161Z" fill="#3e81ba"/>
<path transform="matrix(1,0,0,-1,-29,458)" d="M322.39 369.814H310.00404V454.562H322.39Z" fill="#309f4f"/>
<path transform="matrix(1,0,0,-1,311.3179,60.1279)" d="M0 0 25.841 10.731C24.42 14.342 20.144 16.859 15.111 16.859 6.357 16.46-.417 9.04-.018 .285-.013 .182-.007 .078 0-.025ZM30.34-10.431 40.196-16.949C34.829-24.999 25.777-29.813 16.102-29.766-.326-29.766-12.582-17.066-12.582-.847-12.582 16.35-.209 28.072 14.694 28.072 29.597 28.072 37.042 16.128 39.466 9.675L40.77 6.389 2.099-9.674C5.059-15.476 9.661-18.436 16.115-18.436 22.569-18.436 27.067-15.254 30.353-10.431Z" fill="#e84335"/>
<path transform="matrix(1,0,0,-1,46.042505,53.51709)" d="M0 0V12.269H41.344C41.774 9.824 41.979 7.345 41.957 4.863 41.957-4.342 39.44-15.724 31.331-23.821 23.443-32.035 13.364-36.416 .039-36.416-24.681-36.429-45.542-16.272-45.542 8.475-45.542 33.221-24.681 53.378 .013 53.378 11.516 53.558 22.607 49.098 30.783 41.005L22.126 32.348C16.183 38.078 8.216 41.227-.039 41.109-17.825 41.111-32.245 26.693-32.246 8.907-32.246 8.776-32.245 8.645-32.244 8.514-32.459-9.271-18.217-23.863-.433-24.08-.302-24.081-.17-24.082-.039-24.082 11.695-24.082 18.358-19.375 22.634-15.098 26.103-11.63 28.384-6.675 29.284 .091Z" fill="#3e81ba"/>
<path transform="matrix(1,0,0,-1,438.4795,68.549808)" d="M0 0C.209-6.5-2.65-12.72-7.719-16.794-13.103-21.007-19.79-23.207-26.624-23.013-32.924-23.109-39.072-21.074-44.069-17.237-49.184-13.26-52.849-7.712-54.5-1.447L-44.708 2.555C-44.094 .263-43.158-1.933-41.931-3.964-40.784-5.799-39.359-7.443-37.707-8.84-36.154-10.188-34.393-11.276-32.491-12.061-30.549-12.846-28.472-13.244-26.377-13.234-22.256-13.408-18.204-12.13-14.929-9.623-12-7.306-10.35-3.732-10.483 0-10.438 3.24-11.77 6.349-14.146 8.553-16.441 10.847-20.739 13.073-27.042 15.228-31.081 16.583-35.05 18.142-38.933 19.896-47.381 24.181-51.605 30.518-51.605 38.906-51.631 44.699-49.063 50.2-44.604 53.899-39.771 58.09-33.54 60.314-27.146 60.132-21.528 60.265-16.011 58.632-11.369 55.464-7.201 52.764-4.075 48.728-2.504 44.017L-12.061 40.014C-12.943 42.982-14.775 45.58-17.276 47.406-23.269 51.475-31.177 51.318-37.003 47.015-39.626 45.166-41.167 42.141-41.123 38.932-41.137 36.203-39.961 33.604-37.902 31.813-35.529 29.805-30.379 27.445-22.452 24.694-14.524 21.943-8.618 18.605-5.177 14.642-1.684 10.578 .163 5.355 0 0" fill="#767676"/>
<path transform="matrix(1,0,0,-1,473.9297,91.5625)" d="M0 0C-7.564-.212-14.868 2.775-20.117 8.227-25.373 13.851-28.206 21.315-28.006 29.01-28.006 37.38-25.376 44.308-20.117 49.792-14.871 55.249-7.566 58.241 0 58.033 10.46 58.347 20.004 52.099 23.899 42.387L14.564 38.476C11.713 45.282 6.637 48.685-.665 48.685-5.343 48.682-9.779 46.604-12.777 43.013-16.149 39.142-17.937 34.141-17.784 29.01-17.937 23.878-16.149 18.878-12.777 15.007-9.779 11.415-5.343 9.338-.665 9.335 6.819 9.335 12.082 12.747 15.125 19.57L24.251 15.659C22.388 10.942 19.103 6.923 14.851 4.159 10.421 1.335 5.253-.112 0 0" fill="#767676"/>
<path transform="matrix(1,0,0,-1,507.0605,10.204102)" d="M0 0H10.222V-25.112L9.778-32.674H10.222C11.959-29.837 14.438-27.528 17.393-25.999 20.465-24.284 23.927-23.386 27.445-23.391 34.12-23.391 39.253-25.299 42.843-29.114 46.433-32.93 48.228-38.358 48.228-45.399V-79.585H38.006V-47.342C38.006-37.563 33.66-32.674 24.968-32.674 20.841-32.668 16.95-34.599 14.459-37.889 11.633-41.266 10.115-45.546 10.183-49.949V-79.585H-.04Z" fill="#767676"/>
<path transform="matrix(1,0,0,-1,574.415,62.552705)" d="M0 0C0-5.858 1.704-10.6 5.111-14.225 11.743-21.224 22.793-21.521 29.792-14.891 30.02-14.675 30.242-14.452 30.458-14.225 33.961-10.337 35.797-5.229 35.568 0 35.78 5.195 33.945 10.265 30.458 14.121 24.006 21.12 13.101 21.563 6.102 15.111 5.759 14.794 5.428 14.464 5.111 14.121 1.619 10.268-.217 5.195 0 0M-10.234 0C-10.234 8.371-7.601 15.298-2.333 20.783 2.911 26.242 10.217 29.234 17.784 29.023 25.317 29.249 32.591 26.257 37.785 20.796 43.131 15.32 45.799 8.392 45.791 .013 45.782-8.366 43.113-15.298 37.785-20.783 32.591-26.244 25.317-29.235 17.784-29.01 10.219-29.225 2.914-26.237-2.333-20.783-7.601-15.307-10.234-8.379-10.234 0" fill="#767676"/>
<path transform="matrix(1,0,0,-1,-29,458)" d="M668.215 368.263H657.942V447.796H668.215Z" fill="#767676"/>
<path transform="matrix(1,0,0,-1,658.5508,73.11331)" d="M0 0C-.011-2.638 1.251-5.119 3.39-6.663 5.661-8.423 8.471-9.344 11.344-9.271 15.66-9.266 19.797-7.544 22.843-4.485 26.064-1.645 27.907 2.445 27.902 6.74 24.721 9.261 20.274 10.521 14.563 10.521 10.854 10.664 7.196 9.607 4.133 7.51 1.562 5.878 .003 3.045 0 0M13.234 39.583C20.796 39.583 26.759 37.567 31.122 33.534 35.485 29.501 37.659 23.959 37.642 16.91V-16.676H27.862V-9.114H27.419C23.195-15.338 17.545-18.449 10.47-18.449 4.959-18.626-.417-16.723-4.589-13.117-8.516-9.811-10.743-4.911-10.652 .222-10.829 5.479-8.441 10.497-4.25 13.677 0 17.015 5.698 18.67 12.804 18.67 18.009 18.872 23.178 17.727 27.811 15.346V17.68C27.824 21.179 26.275 24.501 23.586 26.741 20.896 29.158 17.398 30.483 13.781 30.457 8.31 30.587 3.167 27.848 .222 23.234L-8.748 28.905C-3.794 36.024 3.533 39.583 13.234 39.583" fill="#767676"/>
<path transform="matrix(1,0,0,-1,718.0186,89.78909)" d="M0 0H-10.223V54.473H-.418V45.581H.025C1.263 48.694 3.514 51.299 6.414 52.974 9.228 54.876 12.525 55.935 15.919 56.025 18.502 56.104 21.074 55.66 23.481 54.721L20.365 44.825C18.43 45.446 16.397 45.711 14.368 45.607 10.492 45.596 6.815 43.891 4.303 40.939 1.52 37.997-.014 34.089 .025 30.04Z" fill="#767676"/>
</g>
</g>
</g>
</g>
</svg>
