<svg xmlns="http://www.w3.org/2000/svg" xmlns:xlink="http://www.w3.org/1999/xlink" version="1.1" width="198.824pt" height="142.131pt" viewBox="0 0 198.824 142.131">
<defs>
<path id="font_0_2" d="M.7599945 .69506838C.7599945 .69807437 .7579956 .7050781 .7489929 .7050781 .74598696 .7050781 .7449951 .70407107 .73399356 .69306948L.6639862 .61602786C.6549988 .6300354 .60899356 .7050781 .49798585 .7050781 .2749939 .7050781 .049987794 .48391725 .049987794 .25172425 .049987794 .08659363 .16799927-.022460938 .32099916-.022460938 .4079895-.022460938 .48399354 .017532349 .5369873 .063583377 .6299896 .14564514 .6469879 .2367096 .6469879 .23971558 .6469879 .24972534 .6369934 .24972534 .6349945 .24972534 .6289978 .24972534 .6239929 .24772644 .621994 .23971558 .61299136 .21069336 .58999636 .13963318 .5209961 .081588748 .45199586 .025543213 .3889923 .008529663 .33699037 .008529663 .24699402 .008529663 .14099121 .060577394 .14099121 .21670532 .14099121 .27374269 .1619873 .43588258 .2619934 .55296328 .32299806 .62402346 .4169922 .67407229 .5059967 .67407229 .60798647 .67407229 .6669922 .5970001 .6669922 .48091126 .6669922 .44088746 .6639862 .43988038 .6639862 .4298706 .6639862 .41986085 .6749878 .41986085 .67900088 .41986085 .69200137 .41986085 .69200137 .42185975 .69699099 .43988038L.7599945 .69506838Z"/>
<path id="font_1_2" d="M.46499635-.060012819C.46499635-.12535095 .47799684-.19433594 .55999758-.19433594 .68099978-.19433594 .7389984-.021560669 .7389984 .00045776368 .7389984 .007461548 .73298647 .014465332 .72499087 .014465332 .71499636 .014465332 .71199038 .0054626467 .71099856 .0014648438 .68699648-.069107059 .62098696-.08934021 .58699038-.08934021 .5469971-.08934021 .526001-.072143558 .5079956 .008468628 .6859894 .07141113 .82899478 .24832154 .82899478 .42523194 .82899478 .5821686 .71598818 .703125 .5389862 .703125 .2999878 .703125 .068984989 .47920228 .068984989 .25431825 .068984989 .09338379 .18798828-.01953125 .3600006-.01953125 .3789978-.01953125 .41299439-.018539429 .46499635-.0055389406V-.060012819M.2919922 .02545166C.23999024 .043426515 .1659851 .09538269 .1659851 .22932434 .1659851 .29328919 .18699646 .426239 .27799989 .5391846 .34098817 .6161499 .43798829 .67111209 .5309906 .67111209 .6399994 .67111209 .7319946 .5981598 .7319946 .45222474 .7319946 .3522644 .68299868 .13735962 .5 .046432496 .48399354 .109375 .45799256 .15136719 .39898683 .15136719 .34298707 .15136719 .28799439 .10437012 .28799439 .05142212 .28799439 .033447267 .2889862 .032440187 .2919922 .02545166M.46499635 .030441285C.44299317 .022445679 .4059906 .012466431 .36698915 .012466431 .35099793 .012466431 .31599427 .012466431 .31599427 .05142212 .31599427 .08938599 .35699464 .12335205 .39898683 .12335205 .43499757 .12335205 .46199037 .1073761 .46499635 .030441285Z"/>
<path id="font_1_1" d="M.82899478 .4252472C.82899478 .5821686 .71598818 .703125 .5389862 .703125 .2999878 .703125 .068984989 .47921754 .068984989 .2543335 .068984989 .09341431 .18798828-.01953125 .3600006-.01953125 .59799197-.01953125 .82899478 .19836426 .82899478 .4252472M.36799623 .013458252C.2619934 .013458252 .17199707 .0854187 .17199707 .23335266 .17199707 .28431703 .18598938 .426239 .27799989 .54019168 .34498597 .6221466 .44198609 .67111209 .5309906 .67111209 .6349945 .67111209 .73098757 .6051483 .73098757 .4602356 .73098757 .38726808 .69999697 .24134827 .6069946 .13439942 .5369873 .05444336 .44599916 .013458252 .36799623 .013458252Z"/>
<path id="font_0_1" d="M.1599884 .07795715C.1499939 .038986207 .147995 .0309906 .068984989 .0309906 .051986696 .0309906 .041992189 .0309906 .041992189 .010986328 .041992189 0 .050994874 0 .068984989 0H.42599488C.58399966 0 .70199587 .11791992 .70199587 .21585083 .70199587 .28778077 .6439972 .3457489 .5469971 .35673524 .651001 .37573243 .7559967 .44970704 .7559967 .5446625 .7559967 .6186218 .6899872 .6826172 .56999209 .6826172H.23399353C.21499634 .6826172 .20498657 .6826172 .20498657 .6626129 .20498657 .6516113 .21398926 .6516113 .23298645 .6516113 .23498535 .6516113 .2539978 .6516113 .2709961 .6496124 .2889862 .6476135 .2979889 .64660647 .2979889 .6336212 .2979889 .6296234 .29699708 .62661746 .2939911 .614624L.1599884 .07795715M.31098939 .36573792 .37298585 .6136322C.38198854 .64860537 .38398744 .6516113 .4269867 .6516113H.55599978C.6439972 .6516113 .6649933 .5926361 .6649933 .5486603 .6649933 .46069337 .57899478 .36573792 .45700074 .36573792H.31098939M.2659912 .0309906C.2519989 .0309906 .25 .0309906 .24398804 .03199768 .23399353 .032989503 .23098755 .033996583 .23098755 .04197693 .23098755 .04498291 .23098755 .04698181 .23599243 .064971927L.30499269 .34375H.49398805C.58999636 .34375 .60899356 .2698059 .60899356 .22683716 .60899356 .12791443 .519989 .0309906 .4019928 .0309906H.2659912Z"/>
<path id="font_0_3" d="M.30299378 .3244629H.3999939C.47499085 .3244629 .48298646 .30848695 .48298646 .27954103 .48298646 .2725525 .48298646 .26057435 .47599793 .2306366 .47399903 .22564698 .47299195 .22164917 .47299195 .21965027 .47299195 .21166992 .47898866 .20767212 .4850006 .20767212 .49499513 .20767212 .49499513 .21066284 .5 .2286377L.5549927 .44551087C.55799868 .45651246 .55799868 .45851136 .55799868 .46151734 .55799868 .46351625 .55599978 .47251893 .54599 .47251893 .5359955 .47251893 .5349884 .46751405 .5309906 .45150758 .5099945 .37347413 .4869995 .35546876 .4019928 .35546876H.31098939L.375 .6095886C.38398744 .64460757 .3849945 .64860537 .42900086 .64860537H.5609894C.6839905 .64860537 .70700076 .6156006 .70700076 .53855898 .70700076 .5155487 .70700076 .51153567 .70399478 .4845276 .70199587 .4715271 .70199587 .46951295 .70199587 .46652223 .70199587 .46151734 .7049866 .45451356 .71398928 .45451356 .72499087 .45451356 .7259979 .46051026 .7279968 .4795227L.7480011 .65260317C.7509918 .6796112 .74598696 .6796112 .72099307 .6796112H.23098755C.21099854 .6796112 .20098877 .6796112 .20098877 .65960696 .20098877 .64860537 .20999146 .64860537 .22898865 .64860537 .2659912 .64860537 .2939911 .64860537 .2939911 .6306 .2939911 .6266022 .2939911 .6246033 .2889862 .60658267L.15699768 .07791138C.14698792 .038970949 .14498902 .0309906 .06599426 .0309906 .04899597 .0309906 .037994386 .0309906 .037994386 .011993408 .037994386 0 .049987794 0 .052993776 0 .08198547 0 .1559906 .0029907227 .18499756 .0029907227 .21798706 .0029907227 .30099488 0 .33399964 0 .34298707 0 .35499574 0 .35499574 .018997193 .35499574 .026992798 .34899903 .0289917 .34899903 .02999878 .34599305 .0309906 .34399415 .0309906 .32099916 .0309906 .29899598 .0309906 .2939911 .0309906 .2689972 .032989503 .23999024 .035980226 .23699951 .039978029 .23699951 .052947999 .23699951 .0549469 .23699951 .060943605 .24099732 .075912479L.30299378 .3244629Z"/>
<path id="font_2_2" d="M.5049896 .18203736H.47099305C.46798707 .16001892 .45799256 .100997928 .44499208 .09098816 .43699647 .084991458 .3600006 .084991458 .34599305 .084991458H.1619873C.2669983 .17803955 .3019867 .20603943 .3619995 .25306703 .43598939 .312088 .5049896 .374115 .5049896 .46914674 .5049896 .5900879 .39898683 .6640625 .2709961 .6640625 .14698792 .6640625 .06298828 .57710269 .06298828 .4851532 .06298828 .43414308 .10598755 .42915345 .115997318 .42915345 .13999939 .42915345 .16899109 .44615174 .16899109 .48214723 .16899109 .5001526 .1619873 .53515627 .10998535 .53515627 .14099121 .6060791 .20899964 .62805178 .2559967 .62805178 .35598756 .62805178 .4079895 .5501404 .4079895 .46914674 .4079895 .38212586 .34599305 .3130951 .31399537 .27708436L.07299805 .038986207C.06298828 .02999878 .06298828 .027999878 .06298828 0H.47499085L.5049896 .18203736Z"/>
<path id="font_3_1" d="M.47099305 .31817628H.7749939C.79100039 .31817628 .8149872 .31817628 .8149872 .34217835 .8149872 .3671875 .7919922 .3671875 .7749939 .3671875H.47099305V.6679535C.47099305 .68592837 .47099305 .7109375 .44599916 .7109375 .42199708 .7109375 .42199708 .68792727 .42199708 .6729431V.3671875H.116989139C.099990848 .3671875 .07699585 .3671875 .07699585 .34217835 .07699585 .31817628 .100997928 .31817628 .116989139 .31817628H.42199708V.022628785H.116989139C.099990848 .022628785 .07699585 .022628785 .07699585-.002380371 .07699585-.026367188 .100997928-.026367188 .116989139-.026367188H.7749939C.79100039-.026367188 .8149872-.026367188 .8149872-.002380371 .8149872 .022628785 .7919922 .022628785 .7749939 .022628785H.47099305V.31817628Z"/>
<path id="font_2_1" d="M.33499146 .63612368C.33499146 .6630554 .33299256 .6640625 .30499269 .6640625 .24099732 .6014404 .1499939 .6004486 .10899353 .6004486V.5644531C.1329956 .5644531 .19898987 .5644531 .2539978 .592453V.08203125C.2539978 .04899597 .2539978 .035995485 .1539917 .035995485H.115997318V0C.13398743 .0009918213 .25698854 .0039978029 .2939911 .0039978029 .32499696 .0039978029 .45098878 .0009918213 .47299195 0V.035995485H.43499757C.33499146 .035995485 .33499146 .04899597 .33499146 .08203125V.63612368Z"/>
<path id="font_4_1" d="M.2939911 .64004519C.2939911 .66400149 .2939911 .6660156 .2709961 .6660156 .20899964 .60227969 .12098694 .60227969 .08898926 .60227969V.57128909C.10899353 .57128909 .16799927 .57128909 .21998596 .5972748V.07902527C.21998596 .042999269 .21699524 .0309906 .1269989 .0309906H.09498596V0C.12998963 .0029907227 .21699524 .0029907227 .25698854 .0029907227 .29699708 .0029907227 .38398744 .0029907227 .4189911 0V.0309906H.3869934C.29699708 .0309906 .2939911 .041992189 .2939911 .07902527V.64004519Z"/>
</defs>
<path transform="matrix(1,0,0,-1,99.412,71.065998)" stroke-width=".3985" stroke-linecap="butt" stroke-dasharray="2.98883,2.98883" stroke-miterlimit="10" stroke-linejoin="miter" fill="none" stroke="#000000" d="M14.17339 0C14.17339 7.82784 7.82784 14.17339 0 14.17339-7.82784 14.17339-14.17339 7.82784-14.17339 0-14.17339-7.82784-7.82784-14.17339 0-14.17339 7.82784-14.17339 14.17339-7.82784 14.17339 0ZM0 0"/>
<use data-text="C" xlink:href="#font_0_2" transform="matrix(9.9626,0,0,-9.9626,89.328,73.04398)"/>
<use data-text="Q" xlink:href="#font_1_2" transform="matrix(6.9738,0,0,-6.9738,96.449008,74.53899)"/>
<use data-text="O" xlink:href="#font_1_1" transform="matrix(6.9738,0,0,-6.9738,102.725429,74.53899)"/>
<path transform="matrix(1,0,0,-1,99.412,71.065998)" d="M14.17339 56.69362C14.17339 64.52145 7.82784 70.867 0 70.867-7.82784 70.867-14.17339 64.52145-14.17339 56.69362-14.17339 48.86577-7.82784 42.52022 0 42.52022 7.82784 42.52022 14.17339 48.86577 14.17339 56.69362ZM0 56.69362" fill="#ff6a61"/>
<path transform="matrix(1,0,0,-1,99.412,71.065998)" stroke-width=".3985" stroke-linecap="butt" stroke-miterlimit="10" stroke-linejoin="miter" fill="none" stroke="#000000" d="M14.17339 56.69362C14.17339 64.52145 7.82784 70.867 0 70.867-7.82784 70.867-14.17339 64.52145-14.17339 56.69362-14.17339 48.86577-7.82784 42.52022 0 42.52022 7.82784 42.52022 14.17339 48.86577 14.17339 56.69362ZM0 56.69362"/>
<use data-text="B" xlink:href="#font_0_1" transform="matrix(9.9626,0,0,-9.9626,92.247,16.350998)"/>
<use data-text="Q" xlink:href="#font_1_2" transform="matrix(6.9738,0,0,-6.9738,99.804,17.846)"/>
<path transform="matrix(1,0,0,-1,99.412,71.065998)" d="M14.17339-56.69362C14.17339-48.86577 7.82784-42.52022 0-42.52022-7.82784-42.52022-14.17339-48.86577-14.17339-56.69362-14.17339-64.52145-7.82784-70.867 0-70.867 7.82784-70.867 14.17339-64.52145 14.17339-56.69362ZM0-56.69362" fill="#e0e0e0"/>
<path transform="matrix(1,0,0,-1,99.412,71.065998)" stroke-width=".3985" stroke-linecap="butt" stroke-miterlimit="10" stroke-linejoin="miter" fill="none" stroke="#000000" d="M14.17339-56.69362C14.17339-48.86577 7.82784-42.52022 0-42.52022-7.82784-42.52022-14.17339-48.86577-14.17339-56.69362-14.17339-64.52145-7.82784-70.867 0-70.867 7.82784-70.867 14.17339-64.52145 14.17339-56.69362ZM0-56.69362"/>
<use data-text="B" xlink:href="#font_0_1" transform="matrix(9.9626,0,0,-9.9626,92.247,130.415)"/>
<use data-text="O" xlink:href="#font_1_1" transform="matrix(6.9738,0,0,-6.9738,99.804,131.91)"/>
<path transform="matrix(1,0,0,-1,99.412,71.065998)" d="M99.21382 0C99.21382 7.82784 92.86827 14.17339 85.04042 14.17339 77.21257 14.17339 70.86702 7.82784 70.86702 0 70.86702-7.82784 77.21257-14.17339 85.04042-14.17339 92.86827-14.17339 99.21382-7.82784 99.21382 0ZM85.04042 0" fill="#3b9dff"/>
<path transform="matrix(1,0,0,-1,99.412,71.065998)" stroke-width=".3985" stroke-linecap="butt" stroke-miterlimit="10" stroke-linejoin="miter" fill="none" stroke="#000000" d="M99.21382 0C99.21382 7.82784 92.86827 14.17339 85.04042 14.17339 77.21257 14.17339 70.86702 7.82784 70.86702 0 70.86702-7.82784 77.21257-14.17339 85.04042-14.17339 92.86827-14.17339 99.21382-7.82784 99.21382 0ZM85.04042 0"/>
<use data-text="F" xlink:href="#font_0_3" transform="matrix(9.9626,0,0,-9.9626,175.9,73.306987)"/>
<use data-text="2" xlink:href="#font_2_2" transform="matrix(6.9738,0,0,-6.9738,182.306,74.80199)"/>
<use data-text="&#x00b1;" xlink:href="#font_3_1" transform="matrix(6.9738,0,0,-6.9738,186.278,74.80199)"/>
<path transform="matrix(1,0,0,-1,99.412,71.065998)" d="M-70.86702 0C-70.86702 7.82784-77.21257 14.17339-85.04042 14.17339-92.86827 14.17339-99.21382 7.82784-99.21382 0-99.21382-7.82784-92.86827-14.17339-85.04042-14.17339-77.21257-14.17339-70.86702-7.82784-70.86702 0ZM-85.04042 0" fill="#59da79"/>
<path transform="matrix(1,0,0,-1,99.412,71.065998)" stroke-width=".3985" stroke-linecap="butt" stroke-miterlimit="10" stroke-linejoin="miter" fill="none" stroke="#000000" d="M-70.86702 0C-70.86702 7.82784-77.21257 14.17339-85.04042 14.17339-92.86827 14.17339-99.21382 7.82784-99.21382 0-99.21382-7.82784-92.86827-14.17339-85.04042-14.17339-77.21257-14.17339-70.86702-7.82784-70.86702 0ZM-85.04042 0"/>
<use data-text="F" xlink:href="#font_0_3" transform="matrix(9.9626,0,0,-9.9626,5.820999,73.306987)"/>
<use data-text="1" xlink:href="#font_2_1" transform="matrix(6.9738,0,0,-6.9738,12.228,74.80199)"/>
<use data-text="&#x00b1;" xlink:href="#font_3_1" transform="matrix(6.9738,0,0,-6.9738,16.199002,74.80199)"/>
<path transform="matrix(1,0,0,-1,99.412,71.065998)" d="M56.6936 28.3468C56.6936 36.17465 50.34805 42.5202 42.5202 42.5202 34.69235 42.5202 28.3468 36.17465 28.3468 28.3468 28.3468 20.51895 34.69235 14.1734 42.5202 14.1734 50.34805 14.1734 56.6936 20.51895 56.6936 28.3468ZM42.5202 28.3468" fill="#cc7bf5"/>
<path transform="matrix(1,0,0,-1,99.412,71.065998)" stroke-width=".3985" stroke-linecap="butt" stroke-dasharray="2.98883,2.98883" stroke-miterlimit="10" stroke-linejoin="miter" fill="none" stroke="#000000" d="M56.6936 28.3468C56.6936 36.17465 50.34805 42.5202 42.5202 42.5202 34.69235 42.5202 28.3468 36.17465 28.3468 28.3468 28.3468 20.51895 34.69235 14.1734 42.5202 14.1734 50.34805 14.1734 56.6936 20.51895 56.6936 28.3468ZM42.5202 28.3468"/>
<use data-text="C" xlink:href="#font_0_2" transform="matrix(9.9626,0,0,-9.9626,133.02301,45.752)"/>
<use data-text="Q" xlink:href="#font_1_2" transform="matrix(6.9738,0,0,-6.9738,140.856,40.964998)"/>
<use data-text="2" xlink:href="#font_2_2" transform="matrix(6.9738,0,0,-6.9738,140.144,48.408998)"/>
<use data-text="&#x00b1;" xlink:href="#font_3_1" transform="matrix(6.9738,0,0,-6.9738,144.11499,48.408998)"/>
<path transform="matrix(1,0,0,-1,99.412,71.065998)" d="M-28.3468 28.3468C-28.3468 36.17465-34.69235 42.5202-42.5202 42.5202-50.34805 42.5202-56.6936 36.17465-56.6936 28.3468-56.6936 20.51895-50.34805 14.1734-42.5202 14.1734-34.69235 14.1734-28.3468 20.51895-28.3468 28.3468ZM-42.5202 28.3468" fill="#ffb23b"/>
<path transform="matrix(1,0,0,-1,99.412,71.065998)" stroke-width=".3985" stroke-linecap="butt" stroke-dasharray="2.98883,2.98883" stroke-miterlimit="10" stroke-linejoin="miter" fill="none" stroke="#000000" d="M-28.3468 28.3468C-28.3468 36.17465-34.69235 42.5202-42.5202 42.5202-50.34805 42.5202-56.6936 36.17465-56.6936 28.3468-56.6936 20.51895-50.34805 14.1734-42.5202 14.1734-34.69235 14.1734-28.3468 20.51895-28.3468 28.3468ZM-42.5202 28.3468"/>
<use data-text="C" xlink:href="#font_0_2" transform="matrix(9.9626,0,0,-9.9626,47.984,45.752)"/>
<use data-text="Q" xlink:href="#font_1_2" transform="matrix(6.9738,0,0,-6.9738,55.817,40.964998)"/>
<use data-text="1" xlink:href="#font_2_1" transform="matrix(6.9738,0,0,-6.9738,55.104,48.408998)"/>
<use data-text="&#x00b1;" xlink:href="#font_3_1" transform="matrix(6.9738,0,0,-6.9738,59.076,48.408998)"/>
<path transform="matrix(1,0,0,-1,99.412,71.065998)" d="M56.6936-28.3468C56.6936-20.51895 50.34805-14.1734 42.5202-14.1734 34.69235-14.1734 28.3468-20.51895 28.3468-28.3468 28.3468-36.17465 34.69235-42.5202 42.5202-42.5202 50.34805-42.5202 56.6936-36.17465 56.6936-28.3468ZM42.5202-28.3468" fill="#e0e0e0"/>
<path transform="matrix(1,0,0,-1,99.412,71.065998)" stroke-width=".3985" stroke-linecap="butt" stroke-dasharray="2.98883,2.98883" stroke-miterlimit="10" stroke-linejoin="miter" fill="none" stroke="#000000" d="M56.6936-28.3468C56.6936-20.51895 50.34805-14.1734 42.5202-14.1734 34.69235-14.1734 28.3468-20.51895 28.3468-28.3468 28.3468-36.17465 34.69235-42.5202 42.5202-42.5202 50.34805-42.5202 56.6936-36.17465 56.6936-28.3468ZM42.5202-28.3468"/>
<use data-text="C" xlink:href="#font_0_2" transform="matrix(9.9626,0,0,-9.9626,133.02301,101.951)"/>
<use data-text="O" xlink:href="#font_1_1" transform="matrix(6.9738,0,0,-6.9738,140.856,98.336)"/>
<use data-text="2" xlink:href="#font_2_2" transform="matrix(6.9738,0,0,-6.9738,140.144,104.423999)"/>
<use data-text="&#x00b1;" xlink:href="#font_3_1" transform="matrix(6.9738,0,0,-6.9738,144.11499,104.423999)"/>
<path transform="matrix(1,0,0,-1,99.412,71.065998)" d="M-28.3468-28.3468C-28.3468-20.51895-34.69235-14.1734-42.5202-14.1734-50.34805-14.1734-56.6936-20.51895-56.6936-28.3468-56.6936-36.17465-50.34805-42.5202-42.5202-42.5202-34.69235-42.5202-28.3468-36.17465-28.3468-28.3468ZM-42.5202-28.3468" fill="#e0e0e0"/>
<path transform="matrix(1,0,0,-1,99.412,71.065998)" stroke-width=".3985" stroke-linecap="butt" stroke-dasharray="2.98883,2.98883" stroke-miterlimit="10" stroke-linejoin="miter" fill="none" stroke="#000000" d="M-28.3468-28.3468C-28.3468-20.51895-34.69235-14.1734-42.5202-14.1734-50.34805-14.1734-56.6936-20.51895-56.6936-28.3468-56.6936-36.17465-50.34805-42.5202-42.5202-42.5202-34.69235-42.5202-28.3468-36.17465-28.3468-28.3468ZM-42.5202-28.3468"/>
<use data-text="C" xlink:href="#font_0_2" transform="matrix(9.9626,0,0,-9.9626,47.984,101.951)"/>
<use data-text="O" xlink:href="#font_1_1" transform="matrix(6.9738,0,0,-6.9738,55.817,98.336)"/>
<use data-text="1" xlink:href="#font_2_1" transform="matrix(6.9738,0,0,-6.9738,55.104,104.423999)"/>
<use data-text="&#x00b1;" xlink:href="#font_3_1" transform="matrix(6.9738,0,0,-6.9738,59.076,104.423999)"/>
<path transform="matrix(1,0,0,-1,99.412,71.065998)" stroke-width=".79701" stroke-linecap="butt" stroke-miterlimit="10" stroke-linejoin="miter" fill="none" stroke="#000000" d="M0 14.17339V37.85773"/>
<path transform="matrix(0,-1,-1,-0,99.412,33.208265)" d="M4.66248 0C3.28098 .25902 1.0361 1.0361-.51805 1.94269V-1.94269C1.0361-1.0361 3.28098-.25902 4.66248 0"/>
<path transform="matrix(1,0,0,-1,99.412,71.065998)" stroke-width=".79701" stroke-linecap="butt" stroke-miterlimit="10" stroke-linejoin="miter" fill="none" stroke="#000000" d="M0-14.17339V-37.85773"/>
<path transform="matrix(0,1,1,0,99.412,108.92372)" d="M4.66248 0C3.28098 .25902 1.0361 1.0361-.51805 1.94269V-1.94269C1.0361-1.0361 3.28098-.25902 4.66248 0"/>
<path transform="matrix(1,0,0,-1,99.412,71.065998)" stroke-width=".79701" stroke-linecap="butt" stroke-miterlimit="10" stroke-linejoin="miter" fill="none" stroke="#000000" d="M-30.6146 36.00056-15.74954 46.20346"/>
<path transform="matrix(.82445,-.56586,-.56586,-.82445,83.662448,24.862534)" d="M4.66248 0C3.28098 .25902 1.0361 1.0361-.51805 1.94269V-1.94269C1.0361-1.0361 3.28098-.25902 4.66248 0"/>
<path transform="matrix(1,0,0,-1,99.412,71.065998)" stroke-width=".79701" stroke-linecap="butt" stroke-miterlimit="10" stroke-linejoin="miter" fill="none" stroke="#000000" d="M30.6146 36.00056 15.74954 46.20346"/>
<path transform="matrix(-.82445,-.56586,-.56586,.82445,115.16156,24.862534)" d="M4.66248 0C3.28098 .25902 1.0361 1.0361-.51805 1.94269V-1.94269C1.0361-1.0361 3.28098-.25902 4.66248 0"/>
<path transform="matrix(1,0,0,-1,99.412,71.065998)" stroke-width=".79701" stroke-linecap="butt" stroke-miterlimit="10" stroke-linejoin="miter" fill="none" stroke="#000000" d="M-30.6146-36.00056-15.74954-46.20346"/>
<path transform="matrix(.82445,.56586,.56586,-.82445,83.662448,117.269458)" d="M4.66248 0C3.28098 .25902 1.0361 1.0361-.51805 1.94269V-1.94269C1.0361-1.0361 3.28098-.25902 4.66248 0"/>
<path transform="matrix(1,0,0,-1,99.412,71.065998)" stroke-width=".79701" stroke-linecap="butt" stroke-miterlimit="10" stroke-linejoin="miter" fill="none" stroke="#000000" d="M30.6146-36.00056 15.74954-46.20346"/>
<path transform="matrix(-.82445,.56586,.56586,.82445,115.16156,117.269458)" d="M4.66248 0C3.28098 .25902 1.0361 1.0361-.51805 1.94269V-1.94269C1.0361-1.0361 3.28098-.25902 4.66248 0"/>
<path transform="matrix(1,0,0,-1,99.412,71.065998)" stroke-width=".79701" stroke-linecap="butt" stroke-miterlimit="10" stroke-linejoin="miter" fill="none" stroke="#000000" d="M-54.31248 20.49493-69.37073 10.44067"/>
<path transform="matrix(-.83162,.55525,.55525,.83162,30.04129,60.625307)" d="M4.66248 0C3.28098 .25902 1.0361 1.0361-.51805 1.94269V-1.94269C1.0361-1.0361 3.28098-.25902 4.66248 0"/>
<path transform="matrix(1,0,0,-1,99.412,71.065998)" stroke-width=".79701" stroke-linecap="butt" stroke-miterlimit="10" stroke-linejoin="miter" fill="none" stroke="#000000" d="M54.31248 20.49493 69.37073 10.44067"/>
<path transform="matrix(.83162,.55525,.55525,-.83162,168.78272,60.625307)" d="M4.66248 0C3.28098 .25902 1.0361 1.0361-.51805 1.94269V-1.94269C1.0361-1.0361 3.28098-.25902 4.66248 0"/>
<path transform="matrix(1,0,0,-1,99.412,71.065998)" stroke-width=".79701" stroke-linecap="butt" stroke-miterlimit="10" stroke-linejoin="miter" fill="none" stroke="#000000" d="M-54.31248-20.49493-69.37073-10.44067"/>
<path transform="matrix(-.83162,-.55525,-.55525,.83162,30.04129,81.50668)" d="M4.66248 0C3.28098 .25902 1.0361 1.0361-.51805 1.94269V-1.94269C1.0361-1.0361 3.28098-.25902 4.66248 0"/>
<path transform="matrix(1,0,0,-1,99.412,71.065998)" stroke-width=".79701" stroke-linecap="butt" stroke-miterlimit="10" stroke-linejoin="miter" fill="none" stroke="#000000" d="M54.31248-20.49493 69.37073-10.44067"/>
<path transform="matrix(.83162,-.55525,-.55525,-.83162,168.78272,81.50668)" d="M4.66248 0C3.28098 .25902 1.0361 1.0361-.51805 1.94269V-1.94269C1.0361-1.0361 3.28098-.25902 4.66248 0"/>
<use data-text="1" xlink:href="#font_4_1" transform="matrix(9.9626,0,0,-9.9626,231.509,148.551)"/>
</svg>
