<?xml version="1.0" encoding="UTF-8" standalone="no"?>
<svg
   xmlns:dc="http://purl.org/dc/elements/1.1/"
   xmlns:cc="http://creativecommons.org/ns#"
   xmlns:rdf="http://www.w3.org/1999/02/22-rdf-syntax-ns#"
   xmlns:svg="http://www.w3.org/2000/svg"
   xmlns="http://www.w3.org/2000/svg"
   xmlns:sodipodi="http://sodipodi.sourceforge.net/DTD/sodipodi-0.dtd"
   xmlns:inkscape="http://www.inkscape.org/namespaces/inkscape"
   inkscape:version="1.0 (4035a4f, 2020-05-01)"
   sodipodi:docname="ScopusR_Wmk_RGB.svg"
   xml:space="preserve"
   enable-background="new 0 0 95.04 28.08"
   viewBox="0 0 95.04 28.08"
   height="28.08"
   width="95.04"
   y="0"
   x="0"
   id="Layer_1"
   version="1.1"><metadata
     id="metadata853"><rdf:RDF><cc:Work
         rdf:about=""><dc:format>image/svg+xml</dc:format><dc:type
           rdf:resource="http://purl.org/dc/dcmitype/StillImage" /></cc:Work></rdf:RDF></metadata><defs
     id="defs851" /><sodipodi:namedview
     inkscape:current-layer="Layer_1"
     inkscape:window-maximized="0"
     inkscape:window-y="164"
     inkscape:window-x="1885"
     inkscape:cy="36.285824"
     inkscape:cx="31.519924"
     inkscape:zoom="4.0771729"
     showgrid="false"
     id="namedview849"
     inkscape:window-height="739"
     inkscape:window-width="1244"
     inkscape:pageshadow="2"
     inkscape:pageopacity="0"
     guidetolerance="10"
     gridtolerance="10"
     objecttolerance="10"
     borderopacity="1"
     bordercolor="#666666"
     pagecolor="#ffffff" /><path
     style="fill:#f36d21;fill-opacity:1"
     id="path846"
     d="M3.82 5.89c0-1.48 0.86-3.04 3.7-3.04 1.42 0 3.1 0.43 4.65 1.32l0.13-2.64c-1.42-0.63-2.97-0.96-4.78-0.96 -4.62 0-6.6 2.44-6.6 5.45 0 5.61 8.78 6.14 8.78 9.93 0 1.48-1.15 3.04-3.86 3.04 -1.72 0-3.4-0.56-4.72-1.39L0.75 20.25c1.55 0.76 3.57 1.06 5.15 1.06 4.26 0 6.7-2.48 6.7-5.51C12.6 10.48 3.82 9.75 3.82 5.89M20.29 8c0.23-0.13 0.69-0.26 1.72-0.26 1.72 0 2.41 0.3 2.41 1.58h2.38c0-0.36 0-0.79-0.03-1.09 -0.23-1.98-2.15-2.67-4.88-2.67 -3 0-6.7 2.31-6.7 7.76 0 5.21 2.77 7.99 6.63 7.99 1.68 0 3.47-0.36 4.95-1.39l-0.2-2.31c-0.99 0.82-2.84 1.52-4.06 1.52 -2.14 0-4.55-1.71-4.55-5.91C17.94 9.19 20.02 8.17 20.29 8M35.53 5.56c-4.75 0-7.29 3.5-7.29 7.89 0 4.75 2.77 7.86 6.93 7.86 4.52 0 7.33-3.24 7.33-7.86C42.5 8.56 39.72 5.56 35.53 5.56M38.07 18.3c-0.36 0.36-1.52 0.82-2.57 0.82 -1.98 0-4.52-1.09-4.52-5.84 0-2.57 1.35-4.39 1.68-4.72 0.3-0.3 1.35-0.83 2.54-0.83 3.66 0 4.56 3.17 4.56 5.94C39.76 16.22 38.44 17.94 38.07 18.3zM53.52 5.56c-2.11 0-3.53 0.76-5.11 2.61l-0.4-2.21h-2.34l0.13 1.22c0.07 0.76 0.13 1.78 0.13 2.94v17.39h2.54v-6.93c0.96 0.49 2.08 0.73 3.3 0.73 4.23 0 7.16-3.37 7.16-8.48C58.93 7.54 56.55 5.56 53.52 5.56M51.41 19.12c-0.79 0-1.52-0.2-2.05-0.43 -0.3-0.1-0.6-0.27-0.89-0.43v-7.36c0.69-1.06 2.21-2.51 2.48-2.67 0.23-0.13 1.22-0.4 1.98-0.4 2.84 0 3.24 3.17 3.24 5.28C56.16 16.72 54.67 19.12 51.41 19.12zM74.34 16.78V5.96H71.8v9.93c-0.66 1.39-1.95 2.57-2.08 2.64 -0.2 0.1-1.19 0.59-2.47 0.59 -2.28 0-2.48-2.04-2.48-4.49v-8.68h-2.54v10.46c0 3.83 2.15 4.92 4.79 4.92 2.24 0 3.37-0.56 4.89-2.61l0.4 2.18h2.31l-0.13-1.19C74.38 18.96 74.34 17.97 74.34 16.78M80.84 9.45c0-1.19 1.16-1.85 2.84-1.85 1.06 0 2.71 0.26 3.99 1.45l0.27-2.37c-1.02-0.56-2.31-1.12-4.29-1.12 -3.6 0-5.35 1.85-5.35 4.09 0 4.62 7.46 4.46 7.46 7.49 0 1.16-0.99 2.11-3.1 2.11 -1.95 0-3.07-0.83-4.16-1.52L78.2 20.11c1.16 0.79 2.97 1.22 4.65 1.22 3.8 0 5.45-2.18 5.45-4.39C88.3 12.19 80.84 12.46 80.84 9.45M92.31 5.34c-1.09 0-2-0.87-2-1.97 0-1.1 0.91-1.97 2-1.97s1.98 0.88 1.98 1.98C94.29 4.46 93.4 5.34 92.31 5.34zM92.3 1.84c-0.85 0-1.54 0.67-1.54 1.52 0 0.85 0.69 1.54 1.54 1.54 0.85 0 1.54-0.69 1.54-1.54C93.84 2.51 93.15 1.84 92.3 1.84zM92.79 4.43c-0.09-0.09-0.17-0.19-0.25-0.3L92.13 3.56h-0.16V4.43h-0.39V2.29c0.22-0.01 0.47-0.03 0.66-0.03 0.41 0 0.82 0.16 0.82 0.64 0 0.29-0.21 0.55-0.49 0.63 0.23 0.32 0.45 0.62 0.73 0.91H92.79zM92.19 2.59L91.97 2.6v0.63h0.22c0.26 0 0.43-0.05 0.43-0.34C92.62 2.66 92.46 2.59 92.19 2.59z"
     fill="#FFFFFF" /></svg>
